<svg viewBox="0 0 100 100" xmlns="http://www.w3.org/2000/svg" role="img" aria-label="Вечернее платье и смокинг на вешалках">
  <defs>
    <filter id="wc-attire" x="-20%" y="-20%" width="140%" height="140%">
      <feTurbulence type="fractalNoise" baseFrequency="0.014" numOctaves="3" seed="55" result="n"/>
      <feDisplacementMap in="SourceGraphic" in2="n" scale="5" xChannelSelector="R" yChannelSelector="G"/>
      <feGaussianBlur stdDeviation="0.35"/>
    </filter>
    <linearGradient id="attire-dress" x1="0%" y1="0%" x2="100%" y2="100%">
      <stop offset="0%" stop-color="#828d56"/>
      <stop offset="100%" stop-color="#5c6638"/>
    </linearGradient>
    <linearGradient id="attire-suit" x1="0%" y1="0%" x2="100%" y2="100%">
      <stop offset="0%" stop-color="#5a503e"/>
      <stop offset="100%" stop-color="#3d3729"/>
    </linearGradient>
    <radialGradient id="attire-shirt" cx="45%" cy="30%" r="75%">
      <stop offset="0%" stop-color="#f1e7d6"/>
      <stop offset="100%" stop-color="#d8c8ac"/>
    </radialGradient>
    <linearGradient id="attire-gold" x1="0%" y1="0%" x2="100%" y2="100%">
      <stop offset="0%" stop-color="#c8a466"/>
      <stop offset="100%" stop-color="#a07d44"/>
    </linearGradient>
  </defs>
  <g filter="url(#wc-attire)">
    <path d="M30 16 C30 11 34 9 38 11" fill="none" stroke="url(#attire-gold)" stroke-width="2" stroke-linecap="round"/>
    <path d="M70 16 C70 11 74 9 78 11" fill="none" stroke="url(#attire-gold)" stroke-width="2" stroke-linecap="round"/>
    <path d="M18 26 L30 18 L42 26" fill="none" stroke="url(#attire-gold)" stroke-width="2" stroke-linecap="round" stroke-linejoin="round"/>
    <path d="M58 26 L70 18 L82 26" fill="none" stroke="url(#attire-gold)" stroke-width="2" stroke-linecap="round" stroke-linejoin="round"/>
    <path d="M30 25 C25 28 19 30 18 35 C22 40 27 41 30 40 C27 56 25 72 27 88 C30 90 33 90 36 88 C38 72 36 56 33 40 C36 41 40 39 43 35 C42 30 36 28 30 25 Z" fill="url(#attire-dress)"/>
    <path d="M28 42 C27 58 26 73 28 86" fill="none" stroke="#4d5630" stroke-width="0.8" stroke-linecap="round" opacity="0.6"/>
    <path d="M70 25 C64 27 59 30 58 35 C61 40 65 41 68 39 L66 60 C65 72 64 80 66 87 C69 89 72 89 74 87 L73 60 L72 60 L73 87 C75 89 78 89 81 87 C83 80 82 72 81 60 L79 39 C82 41 86 40 89 35 C88 30 82 27 76 25 C74 30 72 30 70 25 Z" fill="url(#attire-suit)"/>
    <path d="M70 25 C71 31 67 47 66 60 C68 50 70 38 73 27 C72 26 71 26 70 25 Z" fill="url(#attire-shirt)"/>
    <path d="M70.5 28 C70 35 70 44 70 54" fill="none" stroke="#4a4233" stroke-width="1.2" stroke-linecap="round" opacity="0.7"/>
    <ellipse cx="70.5" cy="33" rx="2" ry="2.4" fill="#3d3729"/>
  </g>
</svg>
