<svg width="256" height="256" viewBox="0 0 100 100" xmlns="http://www.w3.org/2000/svg" role="img" aria-label="Платье и смокинг — дресс-код">
  <defs>
    <filter id="wc-attire-2" x="-20%" y="-20%" width="140%" height="140%">
      <feTurbulence type="fractalNoise" baseFrequency="0.014" numOctaves="3" seed="56" result="n"/>
      <feDisplacementMap in="SourceGraphic" in2="n" scale="5" xChannelSelector="R" yChannelSelector="G"/>
      <feGaussianBlur stdDeviation="0.35"/>
    </filter>
    <linearGradient id="dress-rose" x1="20%" y1="0%" x2="80%" y2="100%">
      <stop offset="0%" stop-color="#f0d3d4"/>
      <stop offset="100%" stop-color="#d9a9aa"/>
    </linearGradient>
    <radialGradient id="dress-bodice" cx="45%" cy="30%" r="80%">
      <stop offset="0%" stop-color="#eec7c8"/>
      <stop offset="100%" stop-color="#cf9fa0"/>
    </radialGradient>
    <linearGradient id="tux-olive" x1="20%" y1="0%" x2="80%" y2="100%">
      <stop offset="0%" stop-color="#5e6a3c"/>
      <stop offset="100%" stop-color="#3c4424"/>
    </linearGradient>
    <radialGradient id="tux-shirt" cx="50%" cy="30%" r="75%">
      <stop offset="0%" stop-color="#f4ede0"/>
      <stop offset="100%" stop-color="#e3d8c2"/>
    </radialGradient>
  </defs>
  <g filter="url(#wc-attire-2)">
    <!-- Платье слева -->
    <g fill="url(#dress-bodice)">
      <path d="M22 22 C25 19 33 19 36 22 C35 28 33 34 32 40 C30 41 28 41 26 40 C25 34 23 28 22 22 Z"/>
    </g>
    <g fill="url(#dress-rose)">
      <path d="M26 39 C28 38 30 38 32 39 C36 52 39 66 40 86 C34 89 24 89 18 86 C19 66 22 52 26 39 Z"/>
    </g>
    <path d="M27 23 C24 27 21 30 18 31" fill="none" stroke="#d9a9aa" stroke-width="1.8" stroke-linecap="round"/>
    <path d="M31 23 C34 27 37 30 40 31" fill="none" stroke="#d9a9aa" stroke-width="1.8" stroke-linecap="round"/>
    <path d="M24 60 C29 63 34 63 38 60" fill="none" stroke="#b08a4f" stroke-width="1.4" stroke-linecap="round"/>
    <ellipse cx="29" cy="46" rx="1.6" ry="1.6" fill="#b08a4f"/>

    <!-- Смокинг справа -->
    <g fill="url(#tux-olive)">
      <path d="M55 24 C58 20 62 20 65 24 C75 22 80 26 81 34 C81 36 80 38 78 39 C78 56 78 74 76 88 C68 90 56 90 48 88 C46 74 46 56 46 39 C44 38 43 36 43 34 C44 26 49 22 59 24 Z"/>
    </g>
    <g fill="url(#tux-shirt)">
      <path d="M58 27 C61 25 63 25 66 27 C66 42 65 58 64 84 C62 85 60 85 58 84 C58 58 58 42 58 27 Z"/>
    </g>
    <!-- Лацканы -->
    <path d="M61 24 C57 30 54 38 51 50" fill="none" stroke="#2f3619" stroke-width="2" stroke-linecap="round"/>
    <path d="M63 24 C67 30 70 38 73 50" fill="none" stroke="#2f3619" stroke-width="2" stroke-linecap="round"/>
    <!-- Бабочка -->
    <g fill="#b08a4f">
      <path d="M62 33 C59 31 56 32 56 35 C56 38 59 39 62 37 C65 39 68 38 68 35 C68 32 65 31 62 33 Z"/>
    </g>
    <ellipse cx="61" cy="52" rx="1.3" ry="1.3" fill="#b08a4f"/>
    <ellipse cx="61" cy="64" rx="1.3" ry="1.3" fill="#b08a4f"/>
  </g>
</svg>
