<svg width="256" height="256" viewBox="0 0 100 100" xmlns="http://www.w3.org/2000/svg" role="img" aria-label="Милая собака">
  <defs>
    <filter id="wc-dog" x="-20%" y="-20%" width="140%" height="140%">
      <feTurbulence type="fractalNoise" baseFrequency="0.014" numOctaves="3" seed="78" result="n"/>
      <feDisplacementMap in="SourceGraphic" in2="n" scale="5" xChannelSelector="R" yChannelSelector="G"/>
      <feGaussianBlur stdDeviation="0.35"/>
    </filter>
    <radialGradient id="dog-head" cx="42%" cy="34%" r="72%">
      <stop offset="0%" stop-color="#c79560"/>
      <stop offset="100%" stop-color="#a9763f"/>
    </radialGradient>
    <linearGradient id="dog-ear" x1="0%" y1="0%" x2="60%" y2="100%">
      <stop offset="0%" stop-color="#9c6a35"/>
      <stop offset="100%" stop-color="#7c5328"/>
    </linearGradient>
    <radialGradient id="dog-muzzle" cx="50%" cy="40%" r="70%">
      <stop offset="0%" stop-color="#f7f1e2"/>
      <stop offset="100%" stop-color="#f3ead8"/>
    </radialGradient>
    <radialGradient id="dog-nose" cx="40%" cy="35%" r="75%">
      <stop offset="0%" stop-color="#5a4636"/>
      <stop offset="100%" stop-color="#33271d"/>
    </radialGradient>
  </defs>
  <g filter="url(#wc-dog)">
    <path d="M22 30 C16 18 26 12 34 18 C38 26 36 38 28 42 C22 40 20 35 22 30 Z" fill="url(#dog-ear)"/>
    <path d="M78 30 C84 18 74 12 66 18 C62 26 64 38 72 42 C78 40 80 35 78 30 Z" fill="url(#dog-ear)"/>
    <path d="M50 16 C72 16 84 34 83 54 C82 74 68 88 50 88 C32 88 18 74 17 54 C16 34 28 16 50 16 Z" fill="url(#dog-head)"/>
    <path d="M38 54 C38 44 46 38 50 38 C54 38 62 44 62 54 C66 64 60 78 50 80 C40 78 34 64 38 54 Z" fill="url(#dog-muzzle)"/>
    <ellipse cx="38" cy="48" rx="6.4" ry="7" fill="#2c2118"/>
    <ellipse cx="62" cy="48" rx="6.4" ry="7" fill="#2c2118"/>
    <circle cx="36.2" cy="45.6" r="2.1" fill="#f3ead8"/>
    <circle cx="60.2" cy="45.6" r="2.1" fill="#f3ead8"/>
    <ellipse cx="50" cy="60" rx="6" ry="4.6" fill="url(#dog-nose)"/>
    <path d="M50 64 C50 70 50 72 50 74" fill="none" stroke="#6b5340" stroke-width="1.6" stroke-linecap="round"/>
    <path d="M50 74 C46 78 42 78 39 75" fill="none" stroke="#6b5340" stroke-width="1.6" stroke-linecap="round"/>
    <path d="M50 74 C54 78 58 78 61 75" fill="none" stroke="#6b5340" stroke-width="1.6" stroke-linecap="round"/>
    <path d="M48 76 C48 82 52 82 52 76 C53 80 50 84 50 84 C50 84 47 80 48 76 Z" fill="#e7c2c3"/>
  </g>
</svg>
