<svg width="256" height="256" viewBox="0 0 100 100" xmlns="http://www.w3.org/2000/svg" role="img" aria-label="Подарочная коробка с бантом">
  <defs>
    <linearGradient id="gift-box" x1="0%" y1="0%" x2="100%" y2="100%">
      <stop offset="0%" stop-color="#828d57"/>
      <stop offset="100%" stop-color="#5d6837"/>
    </linearGradient>
    <linearGradient id="gift-lid" x1="0%" y1="0%" x2="100%" y2="100%">
      <stop offset="0%" stop-color="#8f9a62"/>
      <stop offset="100%" stop-color="#6a7541"/>
    </linearGradient>
    <linearGradient id="gift-ribbon" x1="0%" y1="0%" x2="100%" y2="100%">
      <stop offset="0%" stop-color="#f0d2d3"/>
      <stop offset="100%" stop-color="#dfb1b3"/>
    </linearGradient>
    <radialGradient id="gift-bow" cx="42%" cy="38%" r="70%">
      <stop offset="0%" stop-color="#f2d6d7"/>
      <stop offset="100%" stop-color="#dcabae"/>
    </radialGradient>
  </defs>
  <g>
    <path d="M22 50 L78 50 L75 88 C75 90 73 91 71 91 L29 91 C27 91 25 90 25 88 Z" fill="url(#gift-box)"/>
    <path d="M19 42 C19 40 21 39 23 39 L77 39 C79 39 81 40 81 42 L81 50 C81 52 79 53 77 53 L23 53 C21 53 19 52 19 50 Z" fill="url(#gift-lid)"/>
    <path d="M44 53 L56 53 L56 91 L44 91 Z" fill="url(#gift-ribbon)"/>
    <path d="M44 39 L56 39 L56 53 L44 53 Z" fill="url(#gift-ribbon)" opacity="0.95"/>
    <g fill="url(#gift-bow)">
      <path d="M50 32 C42 18 26 19 24 28 C23 35 34 38 50 35 Z"/>
      <path d="M50 32 C58 18 74 19 76 28 C77 35 66 38 50 35 Z"/>
      <path d="M44 31 C40 25 42 19 47 18 C50 22 49 28 44 31 Z" opacity="0.85"/>
      <path d="M56 31 C60 25 58 19 53 18 C50 22 51 28 56 31 Z" opacity="0.85"/>
    </g>
    <ellipse cx="50" cy="33" rx="6" ry="5" fill="#cf9da0"/>
    <path d="M22 50 L78 50" fill="none" stroke="#b08a4f" stroke-width="0.9" stroke-linecap="round" opacity="0.7"/>
    <path d="M47 35 C45 32 45 30 47 28" fill="none" stroke="#b08a4f" stroke-width="0.8" stroke-linecap="round" opacity="0.6"/>
    <path d="M53 35 C55 32 55 30 53 28" fill="none" stroke="#b08a4f" stroke-width="0.8" stroke-linecap="round" opacity="0.6"/>
    <ellipse cx="50" cy="33" rx="2.4" ry="2" fill="#b08a4f" opacity="0.55"/>
  </g>
</svg>
