<svg viewBox="0 0 100 100" xmlns="http://www.w3.org/2000/svg" role="img" aria-label="Вешалка с платьем">
  <defs>
    <filter id="wc-hanger" x="-20%" y="-20%" width="140%" height="140%">
      <feTurbulence type="fractalNoise" baseFrequency="0.014" numOctaves="3" seed="60" result="n"/>
      <feDisplacementMap in="SourceGraphic" in2="n" scale="5" xChannelSelector="R" yChannelSelector="G"/>
      <feGaussianBlur stdDeviation="0.35"/>
    </filter>
    <linearGradient id="hanger-gold" x1="0%" y1="0%" x2="100%" y2="100%">
      <stop offset="0%" stop-color="#c8a368"/>
      <stop offset="100%" stop-color="#9a7740"/>
    </linearGradient>
    <linearGradient id="dress-olive" x1="20%" y1="0%" x2="80%" y2="100%">
      <stop offset="0%" stop-color="#8a955f"/>
      <stop offset="100%" stop-color="#5d6736"/>
    </linearGradient>
    <radialGradient id="dress-rose" cx="42%" cy="30%" r="75%">
      <stop offset="0%" stop-color="#f0d3d4"/>
      <stop offset="100%" stop-color="#e0b3b5"/>
    </radialGradient>
  </defs>
  <g filter="url(#wc-hanger)">
    <path d="M50 16 C50 11 54 9 57 11 C60 13 59 17 55 18" fill="none" stroke="url(#hanger-gold)" stroke-width="2.6" stroke-linecap="round"/>
    <path d="M50 18 L26 33 C23 35 24 38 27 38 L73 38 C76 38 77 35 74 33 Z" fill="none" stroke="url(#hanger-gold)" stroke-width="2.8" stroke-linejoin="round" stroke-linecap="round"/>
    <path d="M40 37 C36 47 30 62 28 78 C28 84 33 88 41 89 C50 90 58 90 67 88 C74 86 73 80 71 73 C67 57 63 46 60 37 C56 41 44 41 40 37 Z" fill="url(#dress-olive)"/>
    <path d="M43 38 C42 50 42 66 43 82 C49 83 55 83 60 82 C60 66 59 50 58 38 C53 41 47 41 43 38 Z" fill="url(#dress-rose)" opacity="0.55"/>
    <path d="M40 37 C45 41 56 41 60 37" fill="none" stroke="#b08a4f" stroke-width="1.1" stroke-linecap="round" opacity="0.7"/>
    <path d="M49 39 C49 55 49 70 49 84" fill="none" stroke="#9a7740" stroke-width="0.7" stroke-linecap="round" opacity="0.45"/>
  </g>
</svg>
