<svg width="256" height="256" viewBox="0 0 100 100" xmlns="http://www.w3.org/2000/svg" role="img" aria-label="Вешалка-плечики">
  <defs>
    <linearGradient id="hanger-brass" x1="0%" y1="0%" x2="100%" y2="100%">
      <stop offset="0%" stop-color="#c19a5e"/>
      <stop offset="55%" stop-color="#b08a4f"/>
      <stop offset="100%" stop-color="#9a7740"/>
    </linearGradient>
    <linearGradient id="hanger-bar" x1="0%" y1="0%" x2="100%" y2="0%">
      <stop offset="0%" stop-color="#a9824a"/>
      <stop offset="50%" stop-color="#c4a066"/>
      <stop offset="100%" stop-color="#9a7740"/>
    </linearGradient>
    <radialGradient id="hanger-glow" cx="40%" cy="30%" r="70%">
      <stop offset="0%" stop-color="#d8b67e" stop-opacity="0.5"/>
      <stop offset="100%" stop-color="#b08a4f" stop-opacity="0"/>
    </radialGradient>
  </defs>
  <g>
    <path d="M50 22 C50 16 53 12 58 12 C63 12 66 16 65 21 C64.5 24 62 25 60.5 24.2 C62 22 60.5 18 58 18 C55.5 18 54.5 20.5 55 23 Z" fill="url(#hanger-brass)"/>
    <path d="M50 22 L20 56 C16 60 18 66 24 66 L76 66 C82 66 84 60 80 56 L50 22 Z" fill="none" stroke="url(#hanger-bar)" stroke-width="4.4" stroke-linecap="round" stroke-linejoin="round"/>
    <path d="M24 64 L76 64 C81 64 83 60 80 57 L24 57 C20 60 21 64 24 64 Z" fill="url(#hanger-bar)" stroke="url(#hanger-bar)" stroke-width="3" stroke-linejoin="round"/>
    <ellipse cx="44" cy="40" rx="9" ry="4" fill="url(#hanger-glow)"/>
    <path d="M30 60 L70 60" stroke="#d8b67e" stroke-width="0.8" stroke-linecap="round" opacity="0.45"/>
  </g>
</svg>
