<svg width="256" height="256" viewBox="0 0 100 100" xmlns="http://www.w3.org/2000/svg" role="img" aria-label="Лимон">
  <defs>
    <radialGradient id="peel-lemon" cx="38%" cy="32%" r="78%">
      <stop offset="0%" stop-color="#fdf3b8"/>
      <stop offset="55%" stop-color="#f6da5f"/>
      <stop offset="100%" stop-color="#e0b53b"/>
    </radialGradient>
    <linearGradient id="leaf-lemon" x1="0%" y1="0%" x2="100%" y2="100%">
      <stop offset="0%" stop-color="#8a9a57"/>
      <stop offset="100%" stop-color="#5c6a34"/>
    </linearGradient>
  </defs>
  <g>
    <!-- лимон -->
    <path d="M28 64 C22 48 34 32 52 30 C70 28 82 40 80 56 C78 72 62 80 46 78 C37 77 31 72 28 64 Z" fill="url(#peel-lemon)"/>
    <!-- носик -->
    <path d="M80 52 C85 50 88 52 87 56 C84 56 82 55 80 56 Z" fill="#e6c044"/>
    <path d="M26 60 C21 60 18 62 19 65 C22 65 24 63 27 63 Z" fill="#e6c044"/>
    <!-- блик -->
    <path d="M40 44 C46 38 56 38 60 42 C52 42 46 45 42 50 C40 48 39 46 40 44 Z" fill="#fdf6cf" opacity="0.7"/>
    <!-- листья -->
    <g fill="url(#leaf-lemon)">
      <path d="M58 30 C58 18 66 12 76 14 C76 25 69 31 58 30 Z"/>
      <path d="M48 31 C44 22 48 14 57 13 C59 23 55 30 48 31 Z" opacity="0.95"/>
    </g>
    <path d="M60 28 C66 23 71 20 74 17" stroke="#48542b" stroke-width="0.8" fill="none" opacity="0.6"/>
  </g>
</svg>
