<svg viewBox="0 0 100 100" xmlns="http://www.w3.org/2000/svg" role="img" aria-label="Декоративный знак вопроса">
  <defs>
    <filter id="wc-question" x="-20%" y="-20%" width="140%" height="140%">
      <feTurbulence type="fractalNoise" baseFrequency="0.014" numOctaves="3" seed="99" result="n"/>
      <feDisplacementMap in="SourceGraphic" in2="n" scale="5" xChannelSelector="R" yChannelSelector="G"/>
      <feGaussianBlur stdDeviation="0.35"/>
    </filter>
    <linearGradient id="q-body" x1="0%" y1="0%" x2="100%" y2="100%">
      <stop offset="0%" stop-color="#c39a5d"/>
      <stop offset="55%" stop-color="#b08a4f"/>
      <stop offset="100%" stop-color="#8a7a45"/>
    </linearGradient>
    <radialGradient id="q-dot" cx="40%" cy="35%" r="70%">
      <stop offset="0%" stop-color="#7c8a4e"/>
      <stop offset="100%" stop-color="#5d6a37"/>
    </radialGradient>
    <linearGradient id="q-leaf" x1="0%" y1="0%" x2="100%" y2="100%">
      <stop offset="0%" stop-color="#8b9a5b"/>
      <stop offset="100%" stop-color="#5d6a37"/>
    </linearGradient>
  </defs>
  <g filter="url(#wc-question)">
    <path d="M28 33 C28 17 44 9 60 13 C76 17 82 33 73 45 C66 54 55 56 53 66 C52 71 53 75 53 79"
          fill="none" stroke="url(#q-body)" stroke-width="11" stroke-linecap="round" stroke-linejoin="round"/>
    <path d="M28 33 C29 21 40 14 52 14" fill="none" stroke="#c9a567" stroke-width="2.4" stroke-linecap="round" opacity="0.55"/>
    <ellipse cx="52" cy="91" rx="7" ry="7.4" fill="url(#q-dot)"/>
    <g fill="url(#q-leaf)">
      <path d="M53 72 C47 70 43 62 49 56 C56 60 58 67 53 72 Z"/>
      <path d="M53 72 C59 71 66 65 64 57 C56 59 51 66 53 72 Z"/>
    </g>
    <path d="M53 78 C53 70 53 64 52 58" fill="none" stroke="#6b7440" stroke-width="1.6" stroke-linecap="round" opacity="0.6"/>
  </g>
</svg>
