<svg width="256" height="256" viewBox="0 0 100 100" xmlns="http://www.w3.org/2000/svg" role="img" aria-label="Тосканская вилла с кипарисами">
  <defs>
    <filter id="wc-villa" x="-20%" y="-20%" width="140%" height="140%">
      <feTurbulence type="fractalNoise" baseFrequency="0.014" numOctaves="3" seed="67" result="n"/>
      <feDisplacementMap in="SourceGraphic" in2="n" scale="5" xChannelSelector="R" yChannelSelector="G"/>
      <feGaussianBlur stdDeviation="0.35"/>
    </filter>
    <linearGradient id="wall-villa" x1="0%" y1="0%" x2="0%" y2="100%">
      <stop offset="0%" stop-color="#ecd6ab"/>
      <stop offset="100%" stop-color="#d8b888"/>
    </linearGradient>
    <linearGradient id="roof-villa" x1="0%" y1="0%" x2="0%" y2="100%">
      <stop offset="0%" stop-color="#c87a52"/>
      <stop offset="100%" stop-color="#a85636"/>
    </linearGradient>
    <linearGradient id="cypress-villa" x1="0%" y1="0%" x2="0%" y2="100%">
      <stop offset="0%" stop-color="#5b6438"/>
      <stop offset="100%" stop-color="#414a28"/>
    </linearGradient>
    <radialGradient id="ground-villa" cx="50%" cy="30%" r="80%">
      <stop offset="0%" stop-color="#cdbf8e"/>
      <stop offset="100%" stop-color="#b3a473"/>
    </radialGradient>
  </defs>
  <g filter="url(#wc-villa)">
    <ellipse cx="50" cy="90" rx="42" ry="7" fill="url(#ground-villa)"/>
    <path d="M16 88 C12 60 14 42 22 38 C28 36 33 38 35 44 C36 62 35 78 33 88 Z" fill="url(#cypress-villa)"/>
    <path d="M84 88 C88 58 86 40 78 36 C72 34 67 37 65 43 C64 62 65 78 67 88 Z" fill="url(#cypress-villa)"/>
    <path d="M28 86 L28 56 L72 56 L72 86 Z" fill="url(#wall-villa)"/>
    <path d="M24 57 L50 38 L76 57 Z" fill="url(#roof-villa)"/>
    <path d="M24 57 L76 57 L74 61 L26 61 Z" fill="#9c5234"/>
    <g fill="#9a6f3f">
      <rect x="35" y="63" width="8" height="9" rx="1"/>
      <rect x="57" y="63" width="8" height="9" rx="1"/>
    </g>
    <path d="M46 86 L46 73 C46 70 54 70 54 73 L54 86 Z" fill="#7d5a35"/>
    <line x1="50" y1="73" x2="50" y2="86" stroke="#5e4327" stroke-width="0.8"/>
    <path d="M28 56 C42 53 60 53 72 56" fill="none" stroke="#caa777" stroke-width="0.8" stroke-linecap="round"/>
    <ellipse cx="20" cy="36" rx="5" ry="4" fill="#677042"/>
    <ellipse cx="79" cy="34" rx="5" ry="4" fill="#677042"/>
  </g>
</svg>
